<svg xmlns="http://www.w3.org/2000/svg" width="47" height="47" viewBox="0 0 47 47"><defs><style>.a{fill:#fff;}</style></defs><path class="a" d="M216,211.5a4.5,4.5,0,1,1-4.5-4.5A4.5,4.5,0,0,1,216,211.5Zm0,0" transform="translate(-187.998 -187.998)"/><path class="a" d="M157.067,138.593a4.469,4.469,0,0,0-2.561-2.561,7.466,7.466,0,0,0-2.505-.464c-1.423-.065-1.85-.079-5.453-.079s-4.03.014-5.453.079a7.47,7.47,0,0,0-2.505.465,4.471,4.471,0,0,0-2.561,2.561,7.468,7.468,0,0,0-.464,2.506c-.065,1.423-.079,1.85-.079,5.453s.014,4.03.079,5.453a7.465,7.465,0,0,0,.464,2.505,4.469,4.469,0,0,0,2.561,2.561,7.456,7.456,0,0,0,2.506.465c1.423.065,1.849.079,5.453.079s4.03-.014,5.453-.079a7.456,7.456,0,0,0,2.506-.465,4.469,4.469,0,0,0,2.561-2.561,7.473,7.473,0,0,0,.465-2.505c.065-1.423.079-1.85.079-5.453s-.014-4.03-.079-5.453A7.457,7.457,0,0,0,157.067,138.593ZM146.548,153.48a6.929,6.929,0,1,1,6.929-6.929A6.929,6.929,0,0,1,146.548,153.48Zm7.2-12.513a1.619,1.619,0,1,1,1.619-1.619A1.619,1.619,0,0,1,153.751,140.967Zm0,0" transform="translate(-123.048 -123.051)"/><path class="a" d="M23.5,0A23.5,23.5,0,1,0,47,23.5,23.5,23.5,0,0,0,23.5,0ZM36.913,29.063a9.9,9.9,0,0,1-.627,3.276,6.9,6.9,0,0,1-3.947,3.947,9.907,9.907,0,0,1-3.275.627c-1.439.066-1.9.081-5.563.081s-4.124-.016-5.564-.081a9.907,9.907,0,0,1-3.275-.627,6.9,6.9,0,0,1-3.947-3.947,9.9,9.9,0,0,1-.627-3.275c-.066-1.439-.082-1.9-.082-5.564s.015-4.124.081-5.563a9.9,9.9,0,0,1,.627-3.276,6.9,6.9,0,0,1,3.947-3.947,9.91,9.91,0,0,1,3.276-.627c1.439-.066,1.9-.081,5.563-.081s4.124.016,5.563.082a9.912,9.912,0,0,1,3.276.626,6.9,6.9,0,0,1,3.947,3.947,9.9,9.9,0,0,1,.628,3.276c.066,1.439.081,1.9.081,5.563S36.979,27.624,36.913,29.063Zm0,0"/></svg>