<svg xmlns="http://www.w3.org/2000/svg" width="47" height="47" viewBox="0 0 47 47"><defs><style>.a{fill:#fff;}</style></defs><path class="a" d="M23.5,0A23.5,23.5,0,1,0,47,23.5,23.5,23.5,0,0,0,23.5,0ZM24,37.182h-.006a14.06,14.06,0,0,1-6.722-1.712L9.815,37.426l2-7.286A14.066,14.066,0,1,1,24,37.182Zm0,0"/><path class="a" d="M145.766,124.469a11.692,11.692,0,0,0-9.908,17.905l.278.442-1.181,4.313,4.425-1.16.427.253a11.672,11.672,0,0,0,5.95,1.629h0a11.691,11.691,0,0,0,.005-23.382Zm6.876,16.71a3.621,3.621,0,0,1-2.372,1.671,4.823,4.823,0,0,1-2.214-.139,20.3,20.3,0,0,1-2-.74,15.665,15.665,0,0,1-6-5.3,6.833,6.833,0,0,1-1.435-3.635,3.939,3.939,0,0,1,1.23-2.931,1.292,1.292,0,0,1,.937-.44c.234,0,.469,0,.673.012s.506-.082.791.6c.293.7,1,2.433,1.084,2.608a.648.648,0,0,1,.029.616,10.018,10.018,0,0,1-.879,1.2c-.156.193-.359.365-.154.717a10.593,10.593,0,0,0,1.955,2.434,9.607,9.607,0,0,0,2.826,1.744c.351.176.556.146.761-.088s.879-1.026,1.113-1.378.469-.293.791-.176,2.05.967,2.4,1.143.586.264.673.411a2.931,2.931,0,0,1-.2,1.671Zm0,0" transform="translate(-121.764 -113.043)"/></svg>