<svg xmlns="http://www.w3.org/2000/svg" width="47" height="47" viewBox="0 0 47 47"><defs><style>.a{fill:#fff;}</style></defs><path class="a" d="M224.113,216.819l7.622-4.39-7.622-4.39Zm0,0" transform="translate(-203.528 -188.929)"/><path class="a" d="M23.5,0A23.5,23.5,0,1,0,47,23.5,23.5,23.5,0,0,0,23.5,0ZM38.184,23.524a38.786,38.786,0,0,1-.6,7.064,3.68,3.68,0,0,1-2.589,2.588c-2.3.6-11.491.6-11.491.6s-9.169,0-11.491-.629a3.68,3.68,0,0,1-2.589-2.589,38.616,38.616,0,0,1-.6-7.064,38.76,38.76,0,0,1,.6-7.064,3.754,3.754,0,0,1,2.589-2.613c2.3-.6,11.491-.6,11.491-.6s9.193,0,11.491.629a3.68,3.68,0,0,1,2.589,2.589,36.807,36.807,0,0,1,.6,7.088Zm0,0"/></svg>